<svg xmlns="http://www.w3.org/2000/svg" width="170.307" height="35" viewBox="0 0 170.307 35"><g transform="translate(0 0.003)"><path d="M53.155,5.841l.781-.553C58.551,1.671,66.122.794,71.446.674,64.644-.468,53.419-.961,46.281,5.925l-.337.312c-.553.5-1.634,1.478-2.476,2.344l-1.2,1.3-.6.637L38.313,3.69H31.4L37.111,14.1,24.54,25.238h7.451l7.4-7.211,3.377,7.211h6.922L43.9,14.422l.324-.312s2.5-2.283,4.9-4.6l1.394-1.358a19.4,19.4,0,0,1,2.632-2.307Z" transform="translate(4.952)" fill="#0c224c"/><path d="M6.045,2.91,0,24.627H5.636L11.681,2.91Z" transform="translate(0 0.588)" fill="#65b32e"/><path d="M23.747,7.85c5,0,6.946,1.887,5.913,5.612L26.8,23.654H21.284l2.247-7.98c.7-2.488.276-3.329-3.485-3.329-3.221,0-4.735,1.022-5.468,3.605l-2.151,7.7H6.91L9.806,13.2a7.211,7.211,0,0,1,6.982-5.324h6.958Z" transform="translate(1.394 1.585)" fill="#65b32e"/><path d="M105.64,18.592v.06c-.276,1,.6,1.382,2.632,1.382h4.014c1.55,0,2.3-.3,2.548-1.2s-.421-1.2-1.935-1.2l-5.432-.1c-4.915-.084-7.019-.985-6.009-4.7s3.714-4.975,8.881-4.975H116.6c3.99,0,5.468,1.43,4.627,4.555h-5.5c-.108-.6-.949-.9-2.5-.9h-3.846c-1.334,0-2.055.2-2.271.985s.517,1,2.307,1.022l6.706.084c3.894.072,5.264,1.538,4.326,4.891-1.118,4.026-3.521,5.156-8.328,5.156H106.5c-5.7,0-7.836-.865-6.706-5.1Z" transform="translate(20.081 1.587)" fill="#0c224c"/><path d="M123.922,18.592v.06c-.264,1,.6,1.382,2.632,1.382h4.026c1.55,0,2.283-.3,2.548-1.2s-.421-1.2-1.935-1.2l-5.432-.1c-4.915-.084-7.031-.985-6.009-4.7s3.726-4.975,8.881-4.975h6.237c3.99,0,5.468,1.43,4.627,4.555h-5.516c-.1-.6-.937-.9-2.488-.9h-3.834c-1.346,0-2.067.2-2.283.985s.529,1,2.307,1.022l6.718.084c3.894.072,5.264,1.538,4.326,4.891-1.13,4.014-3.545,5.18-8.34,5.18h-5.612c-5.7,0-7.836-.865-6.706-5.1Z" transform="translate(23.767 1.587)" fill="#0c224c"/><path d="M79.928,13.741h5.18c1.2-4.29,0-5.9-4.206-5.9H75.217a7.211,7.211,0,0,0-6.982,5.324L65.35,23.656h5.516l2.4-8.413c.493-1.767,1.274-2.848,4.278-2.848C78.978,12.431,79.772,12.839,79.928,13.741Z" transform="translate(13.188 1.583)" fill="#0c224c"/><path d="M92.877,20.05H90.545c-2.3,0-3.089-.685-2.584-2.488,0-.12.108-.264.144-.421H101.95l.913-3.293c1.094-3.87-.793-6.009-5.42-6.009H92.288c-4.591,0-7.692,2.127-8.773,6.009l-1.2,4.194c-.985,3.617.877,5.612,5.564,5.612h5.132c4.891,0,7.451-1.382,8.5-5.1H96.254C95.533,19.942,94.643,20.05,92.877,20.05Zm-3.8-6.358c.421-1.538,1.514-2.055,3.726-2.055h2.271c2.175,0,2.968.481,2.536,2.019H89.055Z" transform="translate(16.559 1.583)" fill="#0c224c"/><path d="M63.579,7.89h-6.91A7.211,7.211,0,0,0,49.746,13.2L44.17,33.4h5.516l2.692-9.759h6.838c5.552,0,8.413-1.55,9.494-5.336l1.478-5.276C71.295,9.224,69.336,7.89,63.579,7.89Zm.637,6.862-.589,2.1c-.529,1.923-1.767,2.608-4.218,2.608H53.5l1.2-4.747c.541-1.911,1.743-2.572,4.218-2.572h2.5C63.867,12.144,64.769,12.745,64.216,14.752Z" transform="translate(8.913 1.593)" fill="#0c224c"/><path d="M141.8,11.643a2.8,2.8,0,1,1-3.954-3.954,2.812,2.812,0,0,1,4.807,1.971,2.692,2.692,0,0,1-.853,1.983Zm-3.677-3.69a2.4,2.4,0,1,0,1.7-.7,2.4,2.4,0,0,0-1.7.7Zm1.646.156a2.4,2.4,0,0,1,.841.12A.757.757,0,0,1,141.08,9a.673.673,0,0,1-.3.613.961.961,0,0,1-.445.144.793.793,0,0,1,.7.781v.228a1.541,1.541,0,0,0,0,.228.373.373,0,0,0,0,.156H140.6v-.409a.745.745,0,0,0-.288-.7,1.2,1.2,0,0,0-.6-.1h-.433v1.2h-.541V8.11Zm.589.493a1.346,1.346,0,0,0-.661-.12h-.469V9.6h.493a1.394,1.394,0,0,0,.517-.072.541.541,0,0,0,.12-.925Z" transform="translate(27.653 1.385)" fill="#0c224c"/><path d="M141.8,11.643a2.8,2.8,0,1,1-3.954-3.954,2.812,2.812,0,0,1,4.807,1.971,2.692,2.692,0,0,1-.853,1.983Zm-3.677-3.69a2.4,2.4,0,1,0,1.7-.7,2.4,2.4,0,0,0-1.7.7Zm1.646.156a2.4,2.4,0,0,1,.841.12A.757.757,0,0,1,141.08,9a.673.673,0,0,1-.3.613.961.961,0,0,1-.445.144.793.793,0,0,1,.7.781v.228a1.541,1.541,0,0,0,0,.228.373.373,0,0,0,0,.156H140.6v-.409a.745.745,0,0,0-.288-.7,1.2,1.2,0,0,0-.6-.1h-.433v1.2h-.541V8.11Zm.589.493a1.346,1.346,0,0,0-.661-.12h-.469V9.6h.493a1.394,1.394,0,0,0,.517-.072.541.541,0,0,0,.12-.925Z" transform="translate(27.653 1.385)" fill="#0c224c"/></g></svg>