<svg xmlns="http://www.w3.org/2000/svg" xmlns:xlink="http://www.w3.org/1999/xlink" width="98" height="60" viewBox="0 0 98 60">
  <defs>
    <filter id="Rectangle_395" x="0" y="0" width="98" height="41" filterUnits="userSpaceOnUse">
      <feOffset dy="2" input="SourceAlpha"/>
      <feGaussianBlur stdDeviation="0.5" result="blur"/>
      <feFlood flood-opacity="0.161" result="color"/>
      <feComposite operator="out" in="SourceGraphic" in2="blur"/>
      <feComposite operator="in" in="color"/>
      <feComposite operator="in" in2="SourceGraphic"/>
    </filter>
    <filter id="Ellipse_6" x="53" y="2" width="44" height="44" filterUnits="userSpaceOnUse">
      <feOffset dy="3" input="SourceAlpha"/>
      <feGaussianBlur stdDeviation="2" result="blur-2"/>
      <feFlood flood-opacity="0.239"/>
      <feComposite operator="in" in2="blur-2"/>
      <feComposite in="SourceGraphic"/>
    </filter>
  </defs>
  <g id="toggle-btn-top" transform="translate(-591 -23)">
    <g data-type="innerShadowGroup">
      <rect id="Rectangle_395-2" data-name="Rectangle 395" width="98" height="41" rx="20.5" transform="translate(591 23)" fill="#efefef"/>
      <g transform="matrix(1, 0, 0, 1, 591, 23)" filter="url(#Rectangle_395)">
        <rect id="Rectangle_395-3" data-name="Rectangle 395" width="98" height="41" rx="20.5" fill="#fff"/>
      </g>
    </g>
    <g transform="matrix(1, 0, 0, 1, 591, 23)" filter="url(#Ellipse_6)">
      <circle id="Ellipse_6-2" data-name="Ellipse 6" cx="16" cy="16" r="16" transform="translate(59 5)" fill="#65b32d"/>
    </g>
    <path id="Icon_awesome-truck-moving" data-name="Icon awesome-truck-moving" d="M14.705,7.109,13.321,5.725a1.515,1.515,0,0,0-1.072-.443h-.888V3.007A.757.757,0,0,0,10.6,2.25H.757A.757.757,0,0,0,0,3.007V10.96a1.889,1.889,0,0,0,3.408,1.127A1.889,1.889,0,0,0,6.817,10.96a2,2,0,0,0-.038-.379h3.863a1.819,1.819,0,0,0-.038.379,1.893,1.893,0,0,0,3.787,0,2,2,0,0,0-.038-.379h.417a.38.38,0,0,0,.379-.379V8.179A1.51,1.51,0,0,0,14.705,7.109ZM1.893,11.717a.757.757,0,1,1,.757-.757A.76.76,0,0,1,1.893,11.717Zm3.03,0a.757.757,0,1,1,.757-.757A.76.76,0,0,1,4.923,11.717Zm6.438-5.3h.888a.376.376,0,0,1,.267.111l1.025,1.025h-2.18Zm1.136,5.3a.757.757,0,1,1,.757-.757A.76.76,0,0,1,12.5,11.717Z" transform="translate(658.926 36.448)" fill="#fff"/>
    <text id="Freight" transform="translate(645 80)" fill="#11204b" font-size="13" font-family="Roboto-Medium, Roboto" font-weight="500"><tspan x="0" y="0">Freight</tspan></text>
    <text id="Ship" transform="translate(601 73)" fill="#11204b" font-size="13" font-family="Roboto-Medium, Roboto" font-weight="500" opacity="0"><tspan x="0" y="0">Ship</tspan></text>
    <g id="Icon_feather-codesandbox" data-name="Icon feather-codesandbox" transform="translate(602.76 68.805)" opacity="0.49">
      <path id="Path_213" data-name="Path 213" d="M20.981,15.831V8.5a1.833,1.833,0,0,0-.916-1.585L13.656,3.249a1.83,1.83,0,0,0-1.831,0L5.416,6.914A1.833,1.833,0,0,0,4.5,8.5v7.331a1.833,1.833,0,0,0,.916,1.585l6.409,3.666a1.83,1.83,0,0,0,1.831,0l6.409-3.666A1.833,1.833,0,0,0,20.981,15.831Z" transform="translate(2 -37)" fill="none" stroke="#afafaf" stroke-linecap="round" stroke-linejoin="round" stroke-width="1"/>
      <path id="Path_214" data-name="Path 214" d="M11.25,6.315l3.232,1.868,3.232-1.868" transform="translate(0.258 -38.726)" fill="none" stroke="#afafaf" stroke-linecap="round" stroke-linejoin="round" stroke-width="1"/>
      <path id="Path_215" data-name="Path 215" d="M7.732,23.6V19.868L4.5,18" transform="translate(2 -40.854)" fill="none" stroke="#afafaf" stroke-linecap="round" stroke-linejoin="round" stroke-width="1"/>
      <path id="Path_216" data-name="Path 216" d="M27.982,18,24.75,19.868V23.6" transform="translate(-5.002 -40.854)" fill="none" stroke="#afafaf" stroke-linecap="round" stroke-linejoin="round" stroke-width="1"/>
      <path id="Path_217" data-name="Path 217" d="M4.9,10.44l8.046,3.627L21,10.44" transform="translate(1.789 -39.569)" fill="none" stroke="#afafaf" stroke-linecap="round" stroke-linejoin="round" stroke-width="1"/>
      <path id="Path_218" data-name="Path 218" d="M18,25.24V18" transform="translate(-3.26 -40.854)" fill="none" stroke="#afafaf" stroke-linecap="round" stroke-linejoin="round" stroke-width="1"/>
    </g>
  </g>
</svg>
